<?xml version="1.0" encoding="UTF-8" standalone="no"?>
<!-- Created with Inkscape (http://www.inkscape.org/) -->

<svg
   xmlns:dc="http://purl.org/dc/elements/1.1/"
   xmlns:cc="http://creativecommons.org/ns#"
   xmlns:rdf="http://www.w3.org/1999/02/22-rdf-syntax-ns#"
   xmlns:svg="http://www.w3.org/2000/svg"
   xmlns="http://www.w3.org/2000/svg"
   xmlns:sodipodi="http://sodipodi.sourceforge.net/DTD/sodipodi-0.dtd"
   xmlns:inkscape="http://www.inkscape.org/namespaces/inkscape"
   width="385.32959"
   height="186.28125"
   id="svg5484"
   version="1.1"
   inkscape:version="0.48.5 r10040"
   sodipodi:docname="dialektoraklet.svg">
  <defs
     id="defs5486" />
  <sodipodi:namedview
     id="base"
     pagecolor="#ffffff"
     bordercolor="#666666"
     borderopacity="1.0"
     inkscape:pageopacity="0.0"
     inkscape:pageshadow="2"
     inkscape:zoom="1.1174888"
     inkscape:cx="284.20225"
     inkscape:cy="88.404161"
     inkscape:document-units="px"
     inkscape:current-layer="layer1"
     showgrid="false"
     fit-margin-top="0"
     fit-margin-left="0"
     fit-margin-right="0"
     fit-margin-bottom="0"
     inkscape:window-width="1438"
     inkscape:window-height="879"
     inkscape:window-x="0"
     inkscape:window-y="19"
     inkscape:window-maximized="0" />
  <metadata
     id="metadata5489">
    <rdf:RDF>
      <cc:Work
         rdf:about="">
        <dc:format>image/svg+xml</dc:format>
        <dc:type
           rdf:resource="http://purl.org/dc/dcmitype/StillImage" />
        <dc:title></dc:title>
      </cc:Work>
    </rdf:RDF>
  </metadata>
  <g
     inkscape:label="Layer 1"
     inkscape:groupmode="layer"
     id="layer1"
     transform="translate(-212.75,-395.6875)">
    <path
       inkscape:connector-curvature="0"
       d="m 212.99181,540.68683 4.47819,2.5855 m 10,0 -14.47819,-8.359 m 0,-5.7735 24.47819,14.1325 m 10,0 -34.47819,-19.906 m 0,-5.7735 44.47819,25.6795 m 10,0 -54.47819,-31.453 m 0,-5.7735 64.47819,37.2265 m 10,0 -74.47819,-43 m 0,-5.7735 84.47819,48.7735 m 10,0 -94.47819,-54.547 m 0,-5.7735 104.47819,60.3205 m 10,0 -114.47819,-66.094 m 0,-5.7735 124.47819,71.8675 m 10,0 -134.47819,-77.641 m 0,-5.7735 144.47819,83.4145 m 10,0 -154.47819,-89.188 m 0,-5.7735 164.47819,94.9615 m 10,0 -174.47819,-100.735 m 2.07176,-4.5774 182.40643,105.3124 m 10,0 -182.40643,-105.3124 m 10,0 182.40643,105.3124 m 10,0 -187.758,-108.4021 m 2.49877,-4.3309 195.25923,112.733 m 10,0 -202.76046,-117.0638 m 2.49877,-4.3308 13.97092,8.0661 M 457.47,543.27233 275.06357,437.95993 m -25.35649,-20.4131 6.47707,3.7396 M 467.47,543.27233 285.06357,437.95993 m 10,0 182.40643,105.3124 m 9.99999,0 -182.40642,-105.3124 m 10,0 182.40642,105.3124 m 10,0 -182.40642,-105.3124 m 10,0 182.40642,105.3124 m 10,0 -182.40642,-105.3124 m 10,0 182.40642,105.3124 m 10,0 -182.40642,-105.3124 m 10,0 182.40642,105.3124 m 4.30307,-3.2891 -176.70949,-102.0233 m 10,0 166.70949,96.2498 m 0,-5.7735 -156.70949,-90.4763 m 10,0 146.70949,84.7028 m 0,-5.7735 -136.70949,-78.9293 m 10,0 126.70949,73.1558 m 0,-5.7735 -116.70949,-67.3823 m 10,0 106.70949,61.6088 m 0,-5.7735 -96.70949,-55.8353 m 10,0 86.70949,50.0617 m 0,-5.7735 -76.70949,-44.2882 m 10,0 66.70949,38.5147 m 0,-5.7735 -56.70949,-32.7412 m 10,0 46.70949,26.9677 m 0,-5.7735 -36.70949,-21.1942 m 10,0 26.70949,15.4207 m 0,-5.7735 -16.70949,-9.6472 m 10,0 6.70949,3.8737"
       style="color:#000000;fill:none;stroke:#cccccc;stroke-width:1;stroke-linecap:butt;stroke-linejoin:miter;stroke-miterlimit:4;stroke-opacity:1;stroke-dasharray:none;stroke-dashoffset:0;marker:none;visibility:visible;display:inline;overflow:visible;enable-background:accumulate"
       id="path5447" />
    <path
       style="color:#000000;fill:#ffffff;fill-opacity:1;fill-rule:nonzero;stroke:#cccccc;stroke-width:6;stroke-miterlimit:4;stroke-dasharray:none;marker:none;visibility:visible;display:inline;overflow:visible;enable-background:accumulate"
       d="m 573.78868,531.14393 0,-105.3124 -295.99999,0 -13.9375,-24.1563 -13.9375,24.1563 -24.93751,0 0,105.3124 348.8125,0 z"
       id="path5449"
       inkscape:connector-curvature="0" />
    <g
       id="g5598"
       transform="translate(-18,-4)">
      <path
         inkscape:connector-curvature="0"
         d="m 608.06733,462.40913 -4.47819,-2.5855 m -10,0 14.47819,8.359 m 0,5.7735 -24.47819,-14.1325 m -10,0 34.47819,19.906 m 0,5.7735 -44.47819,-25.6795 m -10,0 54.47819,31.453 m 0,5.7735 -64.47819,-37.2265 m -10,0 74.47819,43 m 0,5.7735 -84.47819,-48.7735 m -10,0 94.47819,54.547 m 0,5.7735 -104.47819,-60.3205 m -10,0 114.47819,66.094 m 0,5.7735 -124.47819,-71.8675 m -10,0 134.47819,77.641 m 0,5.7735 -144.47819,-83.4145 m -10,0 154.47819,89.188 m 0,5.7735 -164.47819,-94.9615 m -10,0 174.47819,100.735 m -2.07176,4.5774 -182.40643,-105.3124 m -10,0 182.40643,105.3124 m -10,0 -182.40643,-105.3124 m -10,0 187.758,108.4021 m -2.49877,4.3309 -195.25923,-112.733 m -10,0 202.76046,117.0638 m -2.49877,4.3308 -13.97092,-8.0661 m -196.29077,-113.3285 182.40643,105.3124 m 25.35649,20.4131 -6.47707,-3.7396 m -211.28585,-121.9859 182.40643,105.3124 m -10,0 -182.40643,-105.3124 m -9.99999,0 182.40642,105.3124 m -10,0 -182.40642,-105.3124 m -10,0 182.40642,105.3124 m -10,0 -182.40642,-105.3124 m -10,0 182.40642,105.3124 m -10,0 -182.40642,-105.3124 m -10,0 182.40642,105.3124 m -10,0 -182.40642,-105.3124 m -4.30306,3.2891 176.70948,102.0233 m -10,0 -166.70948,-96.2498 m 0,5.7735 156.70948,90.4763 m -10,0 -146.70948,-84.7028 m 0,5.7735 136.70948,78.9293 m -10,0 -126.70948,-73.1558 m 0,5.7735 116.70948,67.3823 m -10,0 -106.70948,-61.6088 m 0,5.7735 96.70948,55.8353 m -10,0 -86.70948,-50.0617 m 0,5.7735 76.70948,44.2882 m -10,0 -66.70948,-38.5147 m 0,5.7735 56.70948,32.7412 m -9.99999,0 -46.70949,-26.9677 m 0,5.7735 36.70949,21.1942 m -10,0 -26.70949,-15.4207 m 0,5.7735 16.70949,9.6472 m -10,0 -6.70949,-3.8737"
         style="color:#000000;fill:none;stroke:#f34f2c;stroke-width:1;stroke-linecap:butt;stroke-linejoin:miter;stroke-miterlimit:4;stroke-opacity:1;stroke-dasharray:none;stroke-dashoffset:0;marker:none;visibility:visible;display:inline;overflow:visible;enable-background:accumulate"
         id="path5451" />
      <rect
         y="453.83368"
         x="-616.07959"
         height="105.31646"
         width="348.80124"
         id="rect5453"
         style="color:#000000;fill:#f34f2c;fill-opacity:1;fill-rule:nonzero;stroke:none;stroke-width:3;marker:none;visibility:visible;display:inline;overflow:visible;enable-background:accumulate"
         transform="scale(-1,1)" />
      <path
         inkscape:transform-center-y="8.4254706"
         transform="matrix(-0.33558591,-0.58125184,0.58125184,-0.33558591,480.73969,768.52523)"
         d="m 210.63291,337.77746 -43.48604,-75.32001 86.97206,0 z"
         inkscape:randomized="0"
         inkscape:rounded="0"
         inkscape:flatsided="true"
         sodipodi:arg2="2.6179939"
         sodipodi:arg1="1.5707963"
         sodipodi:r2="25.10667"
         sodipodi:r1="50.213341"
         sodipodi:cy="287.56412"
         sodipodi:cx="210.6329"
         sodipodi:sides="3"
         id="path5455"
         style="color:#000000;fill:#f34f2c;fill-opacity:1;fill-rule:nonzero;stroke:none;stroke-width:1;marker:none;visibility:visible;display:inline;overflow:visible;enable-background:accumulate"
         sodipodi:type="star" />
      <g
         id="flowRoot5457"
         style="font-size:40px;font-style:normal;font-weight:normal;line-height:125%;letter-spacing:0px;word-spacing:0px;fill:#ffffff;fill-opacity:1;stroke:none;font-family:Sans"
         transform="translate(-123.27947,252.53333)">
        <path
           id="path5551"
           style="text-align:center;text-anchor:middle"
           d="m 420.39469,265.37782 0,-28.4 10.92,0 c 2.34665,3e-5 4.41331,0.37336 6.2,1.12 1.78664,0.74669 3.27997,1.76003 4.48,3.04 1.19997,1.28002 2.10664,2.78669 2.72,4.52 0.6133,1.70669 0.91997,3.53335 0.92,5.48 -3e-5,2.16001 -0.3467,4.12001 -1.04,5.88 -0.6667,1.73334 -1.62669,3.22667 -2.88,4.48 -1.25336,1.22667 -2.76002,2.18667 -4.52,2.88 -1.76002,0.66667 -3.72002,1 -5.88,1 l -10.92,0 m 17.32,-14.24 c -2e-5,-1.09332 -0.14669,-2.09332 -0.44,-3 -0.29335,-0.90665 -0.72002,-1.67998 -1.28,-2.32 -0.53335,-0.63998 -1.20002,-1.13331 -2,-1.48 -0.80002,-0.37331 -1.69335,-0.55998 -2.68,-0.56 l -3.12,0 0,14.8 3.12,0 c 1.01332,1e-5 1.91998,-0.18666 2.72,-0.56 0.79998,-0.37332 1.46665,-0.89332 2,-1.56 0.55998,-0.66666 0.97331,-1.45332 1.24,-2.36 0.29331,-0.90665 0.43998,-1.89332 0.44,-2.96"
           inkscape:connector-curvature="0" />
        <path
           id="path5553"
           style="text-align:center;text-anchor:middle"
           d="m 448.71219,265.37782 0,-21.04 7.6,0 0,21.04 -7.6,0 m 0,-22.8 0,-6.4 7.6,0 0,6.4 -7.6,0"
           inkscape:connector-curvature="0" />
        <path
           id="path5555"
           style="text-align:center;text-anchor:middle"
           d="m 466.71844,265.77782 c -1.04001,0 -2.01334,-0.17333 -2.92,-0.52 -0.90667,-0.34666 -1.69334,-0.81333 -2.36,-1.4 -0.64001,-0.61333 -1.14667,-1.33333 -1.52,-2.16 -0.37334,-0.82666 -0.56,-1.71999 -0.56,-2.68 0,-1.06666 0.22666,-2.03999 0.68,-2.92 0.45333,-0.87999 1.07999,-1.63999 1.88,-2.28 0.79999,-0.63999 1.74666,-1.13332 2.84,-1.48 1.11999,-0.34665 2.34665,-0.51998 3.68,-0.52 1.70665,2e-5 3.11998,0.26668 4.24,0.8 l 0,-0.64 c -2e-5,-0.98665 -0.29335,-1.71998 -0.88,-2.2 -0.56002,-0.47998 -1.48002,-0.71998 -2.76,-0.72 -1.20001,2e-5 -2.30668,0.20002 -3.32,0.6 -1.01334,0.37335 -2.08001,0.93335 -3.2,1.68 l -2.2,-4.72 c 2.77333,-1.78664 5.93332,-2.67998 9.48,-2.68 3.35998,2e-5 5.94665,0.74669 7.76,2.24 1.81331,1.49335 2.71998,3.73335 2.72,6.72 l 0,4.08 c -2e-5,0.72001 0.13331,1.22668 0.4,1.52 0.26664,0.26667 0.74664,0.42667 1.44,0.48 l 0,6.4 c -0.69336,0.13333 -1.34669,0.22667 -1.96,0.28 -0.61336,0.08 -1.16002,0.12 -1.64,0.12 -1.36002,0 -2.40002,-0.24 -3.12,-0.72 -0.69335,-0.50666 -1.14669,-1.24 -1.36,-2.2 l -0.16,-0.76 c -0.93335,1.2 -2.01335,2.12 -3.24,2.76 -1.22668,0.61333 -2.53335,0.92 -3.92,0.92 m 2.28,-5.44 c 0.45332,10e-6 0.91999,-0.0667 1.4,-0.2 0.47998,-0.15999 0.90665,-0.35999 1.28,-0.6 0.29332,-0.21333 0.53332,-0.43999 0.72,-0.68 0.18665,-0.26666 0.27998,-0.53332 0.28,-0.8 l 0,-1.56 c -0.45335,-0.15999 -0.94668,-0.29332 -1.48,-0.4 -0.53335,-0.10666 -1.01335,-0.15999 -1.44,-0.16 -0.93335,1e-5 -1.70668,0.22668 -2.32,0.68 -0.61334,0.45334 -0.92001,1.02668 -0.92,1.72 -10e-6,0.58667 0.22666,1.06667 0.68,1.44 0.47999,0.37334 1.07999,0.56001 1.8,0.56"
           inkscape:connector-curvature="0" />
        <path
           id="path5557"
           style="text-align:center;text-anchor:middle"
           d="m 484.93906,236.17782 7.6,0 0,20.32 c -1e-5,1.60001 0.65332,2.40001 1.96,2.4 0.31999,10e-6 0.66665,-0.0533 1.04,-0.16 0.37332,-0.10666 0.71999,-0.25332 1.04,-0.44 l 0.96,6.12 c -0.90668,0.42667 -1.93335,0.76 -3.08,1 -1.12001,0.24 -2.18668,0.36 -3.2,0.36 -2.02667,0 -3.58667,-0.52 -4.68,-1.56 -1.09334,-1.04 -1.64,-2.54666 -1.64,-4.52 l 0,-23.52"
           inkscape:connector-curvature="0" />
        <path
           id="path5559"
           style="text-align:center;text-anchor:middle"
           d="m 510.11594,265.77782 c -1.84001,0 -3.48001,-0.28 -4.92,-0.84 -1.44001,-0.58666 -2.65334,-1.37333 -3.64,-2.36 -0.96001,-0.98666 -1.69334,-2.11999 -2.2,-3.4 -0.50667,-1.27999 -0.76,-2.62666 -0.76,-4.04 0,-1.51999 0.23999,-2.95999 0.72,-4.32 0.50666,-1.35998 1.23999,-2.54665 2.2,-3.56 0.98666,-1.01331 2.18666,-1.81331 3.6,-2.4 1.43999,-0.61331 3.10665,-0.91998 5,-0.92 1.86665,2e-5 3.51998,0.30669 4.96,0.92 1.43998,0.58669 2.63998,1.38669 3.6,2.4 0.98664,0.98669 1.71997,2.14668 2.2,3.48 0.50664,1.30668 0.75997,2.68001 0.76,4.12 -3e-5,0.40001 -0.0267,0.81334 -0.08,1.24 -0.0267,0.40001 -0.0667,0.76001 -0.12,1.08 l -14.76,0 c 0.08,1.12001 0.49332,1.93334 1.24,2.44 0.74665,0.48001 1.55998,0.72001 2.44,0.72 0.82665,10e-6 1.59998,-0.18666 2.32,-0.56 0.74665,-0.37333 1.23998,-0.89333 1.48,-1.56 l 6.44,1.84 c -0.85336,1.68001 -2.17336,3.05334 -3.96,4.12 -1.76002,1.06667 -3.93335,1.6 -6.52,1.6 m 3.36,-13.16 c -0.13335,-1.01332 -0.50669,-1.81332 -1.12,-2.4 -0.61335,-0.58665 -1.40002,-0.87998 -2.36,-0.88 -0.96002,2e-5 -1.74668,0.29335 -2.36,0.88 -0.61335,0.58668 -0.98668,1.38668 -1.12,2.4 l 6.96,0"
           inkscape:connector-curvature="0" />
        <path
           id="path5561"
           style="text-align:center;text-anchor:middle"
           d="m 538.41094,265.37782 -4.76,-7.68 -1.52,1.68 0,6 -7.6,0 0,-29.2 7.6,0 0,15.96 5.6,-7.8 8,0 -7.24,9.2 7.96,11.84 -8.04,0"
           inkscape:connector-curvature="0" />
        <path
           id="path5563"
           style="text-align:center;text-anchor:middle"
           d="m 562.97218,264.21782 c -1.06668,0.45334 -2.21335,0.84 -3.44,1.16 -1.20001,0.29333 -2.38668,0.44 -3.56,0.44 -0.85334,0 -1.66667,-0.10667 -2.44,-0.32 -0.77334,-0.21333 -1.45334,-0.56 -2.04,-1.04 -0.56,-0.48 -1.01334,-1.10666 -1.36,-1.88 -0.32,-0.77333 -0.48,-1.73333 -0.48,-2.88 l 0,-9.64 -2.6,0 0,-5.72 2.6,0 0,-6.6 7.6,0 0,6.6 4.12,0 0,5.72 -4.12,0 0,6.96 c -10e-6,0.69334 0.14666,1.18668 0.44,1.48 0.29332,0.26667 0.69332,0.40001 1.2,0.4 0.37332,10e-6 0.79999,-0.0533 1.28,-0.16 0.47999,-0.13333 0.95999,-0.30666 1.44,-0.52 l 1.36,6"
           inkscape:connector-curvature="0" />
        <path
           id="path5565"
           style="text-align:center;text-anchor:middle"
           d="m 575.69094,265.77782 c -1.89334,0 -3.56001,-0.29333 -5,-0.88 -1.41334,-0.61333 -2.61334,-1.41333 -3.6,-2.4 -0.96,-1.01333 -1.69333,-2.17333 -2.2,-3.48 -0.48,-1.33332 -0.72,-2.71999 -0.72,-4.16 0,-1.43999 0.24,-2.81332 0.72,-4.12 0.50667,-1.33332 1.24,-2.49331 2.2,-3.48 0.98666,-1.01331 2.18666,-1.81331 3.6,-2.4 1.43999,-0.61331 3.10666,-0.91998 5,-0.92 1.86665,2e-5 3.51998,0.30669 4.96,0.92 1.43998,0.58669 2.63998,1.38669 3.6,2.4 0.98665,0.98669 1.71998,2.14668 2.2,3.48 0.50664,1.30668 0.75998,2.68001 0.76,4.12 -2e-5,1.44001 -0.25336,2.82668 -0.76,4.16 -0.48002,1.30667 -1.21335,2.46667 -2.2,3.48 -0.96002,0.98667 -2.16002,1.78667 -3.6,2.4 -1.44002,0.58667 -3.09335,0.88 -4.96,0.88 m -3.72,-10.92 c -1e-5,1.41334 0.34666,2.52001 1.04,3.32 0.69332,0.80001 1.58666,1.20001 2.68,1.2 1.09332,1e-5 1.98665,-0.39999 2.68,-1.2 0.69332,-0.79999 1.03998,-1.90666 1.04,-3.32 -2e-5,-1.41332 -0.34668,-2.51999 -1.04,-3.32 -0.69335,-0.79998 -1.58668,-1.19998 -2.68,-1.2 -1.09334,2e-5 -1.98668,0.40002 -2.68,1.2 -0.69334,0.80001 -1.04001,1.90668 -1.04,3.32"
           inkscape:connector-curvature="0" />
        <path
           id="path5567"
           style="text-align:center;text-anchor:middle"
           d="m 604.54218,250.81782 c -1.46668,2e-5 -2.80001,0.16002 -4,0.48 -1.20001,0.32002 -2.09334,0.85335 -2.68,1.6 l 0,12.48 -7.6,0 0,-21.04 6.96,0 0,4 c 0.74666,-1.41331 1.66666,-2.49331 2.76,-3.24 1.11999,-0.77331 2.31999,-1.15998 3.6,-1.16 0.50666,2e-5 0.82666,0.0134 0.96,0.04 l 0,6.84"
           inkscape:connector-curvature="0" />
        <path
           id="path5569"
           style="text-align:center;text-anchor:middle"
           d="m 613.26844,265.77782 c -1.04,0 -2.01334,-0.17333 -2.92,-0.52 -0.90667,-0.34666 -1.69333,-0.81333 -2.36,-1.4 -0.64,-0.61333 -1.14666,-1.33333 -1.52,-2.16 -0.37333,-0.82666 -0.56,-1.71999 -0.56,-2.68 0,-1.06666 0.22667,-2.03999 0.68,-2.92 0.45334,-0.87999 1.08,-1.63999 1.88,-2.28 0.8,-0.63999 1.74667,-1.13332 2.84,-1.48 1.12,-0.34665 2.34666,-0.51998 3.68,-0.52 1.70666,2e-5 3.11999,0.26668 4.24,0.8 l 0,-0.64 c -10e-6,-0.98665 -0.29334,-1.71998 -0.88,-2.2 -0.56001,-0.47998 -1.48001,-0.71998 -2.76,-0.72 -1.20001,2e-5 -2.30667,0.20002 -3.32,0.6 -1.01334,0.37335 -2.08,0.93335 -3.2,1.68 l -2.2,-4.72 c 2.77333,-1.78664 5.93333,-2.67998 9.48,-2.68 3.35999,2e-5 5.94665,0.74669 7.76,2.24 1.81332,1.49335 2.71998,3.73335 2.72,6.72 l 0,4.08 c -2e-5,0.72001 0.13332,1.22668 0.4,1.52 0.26665,0.26667 0.74665,0.42667 1.44,0.48 l 0,6.4 c -0.69335,0.13333 -1.34669,0.22667 -1.96,0.28 -0.61335,0.08 -1.16002,0.12 -1.64,0.12 -1.36001,0 -2.40001,-0.24 -3.12,-0.72 -0.69335,-0.50666 -1.14668,-1.24 -1.36,-2.2 l -0.16,-0.76 c -0.93334,1.2 -2.01334,2.12 -3.24,2.76 -1.22667,0.61333 -2.53334,0.92 -3.92,0.92 m 2.28,-5.44 c 0.45333,10e-6 0.91999,-0.0667 1.4,-0.2 0.47999,-0.15999 0.90666,-0.35999 1.28,-0.6 0.29332,-0.21333 0.53332,-0.43999 0.72,-0.68 0.18666,-0.26666 0.27999,-0.53332 0.28,-0.8 l 0,-1.56 c -0.45334,-0.15999 -0.94668,-0.29332 -1.48,-0.4 -0.53334,-0.10666 -1.01334,-0.15999 -1.44,-0.16 -0.93334,1e-5 -1.70667,0.22668 -2.32,0.68 -0.61334,0.45334 -0.92,1.02668 -0.92,1.72 0,0.58667 0.22666,1.06667 0.68,1.44 0.47999,0.37334 1.07999,0.56001 1.8,0.56"
           inkscape:connector-curvature="0" />
        <path
           id="path5571"
           style="text-align:center;text-anchor:middle"
           d="m 645.48906,265.37782 -4.76,-7.68 -1.52,1.68 0,6 -7.6,0 0,-29.2 7.6,0 0,15.96 5.6,-7.8 8,0 -7.24,9.2 7.96,11.84 -8.04,0"
           inkscape:connector-curvature="0" />
        <path
           id="path5573"
           style="text-align:center;text-anchor:middle"
           d="m 655.17031,236.17782 7.6,0 0,20.32 c -10e-6,1.60001 0.65332,2.40001 1.96,2.4 0.31998,10e-6 0.66665,-0.0533 1.04,-0.16 0.37332,-0.10666 0.71998,-0.25332 1.04,-0.44 l 0.96,6.12 c -0.90668,0.42667 -1.93335,0.76 -3.08,1 -1.12001,0.24 -2.18668,0.36 -3.2,0.36 -2.02668,0 -3.58667,-0.52 -4.68,-1.56 -1.09334,-1.04 -1.64001,-2.54666 -1.64,-4.52 l 0,-23.52"
           inkscape:connector-curvature="0" />
        <path
           id="path5575"
           style="text-align:center;text-anchor:middle"
           d="m 680.34719,265.77782 c -1.84001,0 -3.48001,-0.28 -4.92,-0.84 -1.44001,-0.58666 -2.65334,-1.37333 -3.64,-2.36 -0.96,-0.98666 -1.69333,-2.11999 -2.2,-3.4 -0.50667,-1.27999 -0.76,-2.62666 -0.76,-4.04 0,-1.51999 0.24,-2.95999 0.72,-4.32 0.50667,-1.35998 1.24,-2.54665 2.2,-3.56 0.98666,-1.01331 2.18666,-1.81331 3.6,-2.4 1.43999,-0.61331 3.10666,-0.91998 5,-0.92 1.86665,2e-5 3.51998,0.30669 4.96,0.92 1.43998,0.58669 2.63998,1.38669 3.6,2.4 0.98665,0.98669 1.71998,2.14668 2.2,3.48 0.50664,1.30668 0.75998,2.68001 0.76,4.12 -2e-5,0.40001 -0.0267,0.81334 -0.08,1.24 -0.0267,0.40001 -0.0667,0.76001 -0.12,1.08 l -14.76,0 c 0.08,1.12001 0.49332,1.93334 1.24,2.44 0.74666,0.48001 1.55999,0.72001 2.44,0.72 0.82665,10e-6 1.59999,-0.18666 2.32,-0.56 0.74665,-0.37333 1.23998,-0.89333 1.48,-1.56 l 6.44,1.84 c -0.85335,1.68001 -2.17335,3.05334 -3.96,4.12 -1.76002,1.06667 -3.93335,1.6 -6.52,1.6 m 3.36,-13.16 c -0.13335,-1.01332 -0.50668,-1.81332 -1.12,-2.4 -0.61335,-0.58665 -1.40001,-0.87998 -2.36,-0.88 -0.96001,2e-5 -1.74668,0.29335 -2.36,0.88 -0.61334,0.58668 -0.98667,1.38668 -1.12,2.4 l 6.96,0"
           inkscape:connector-curvature="0" />
        <path
           id="path5577"
           style="font-variant:normal;font-weight:900;font-stretch:normal;text-align:start;letter-spacing:0.40000001px;writing-mode:lr-tb;text-anchor:start;fill:#ffffff;font-family:Raleway;-inkscape-font-specification:Raleway Heavy"
           d="m 709.5222,264.21782 c -1.06668,0.45334 -2.21335,0.84 -3.44,1.16 -1.20001,0.29333 -2.38668,0.44 -3.56,0.44 -0.85334,0 -1.66668,-0.10667 -2.44,-0.32 -0.77334,-0.21333 -1.45334,-0.56 -2.04,-1.04 -0.56,-0.48 -1.01334,-1.10666 -1.36,-1.88 -0.32,-0.77333 -0.48,-1.73333 -0.48,-2.88 l 0,-9.64 -2.6,0 0,-5.72 2.6,0 0,-6.6 7.6,0 0,6.6 4.12,0 0,5.72 -4.12,0 0,6.96 c -10e-6,0.69334 0.14666,1.18668 0.44,1.48 0.29332,0.26667 0.69332,0.40001 1.2,0.4 0.37332,10e-6 0.79999,-0.0533 1.28,-0.16 0.47999,-0.13333 0.95998,-0.30666 1.44,-0.52 l 1.36,6"
           inkscape:connector-curvature="0" />
      </g>
    </g>
  </g>
</svg>
