<?xml version="1.0" encoding="UTF-8" standalone="no"?>
<!-- Created with Inkscape (http://www.inkscape.org/) -->

<svg
   xmlns:dc="http://purl.org/dc/elements/1.1/"
   xmlns:cc="http://creativecommons.org/ns#"
   xmlns:rdf="http://www.w3.org/1999/02/22-rdf-syntax-ns#"
   xmlns:svg="http://www.w3.org/2000/svg"
   xmlns="http://www.w3.org/2000/svg"
   xmlns:sodipodi="http://sodipodi.sourceforge.net/DTD/sodipodi-0.dtd"
   xmlns:inkscape="http://www.inkscape.org/namespaces/inkscape"
   width="248"
   height="120"
   id="svg5484"
   version="1.1"
   inkscape:version="0.91 r13725"
   sodipodi:docname="dialektoraklet_2.svg">
  <sodipodi:namedview
     id="base"
     pagecolor="#ffffff"
     bordercolor="#666666"
     borderopacity="1.0"
     inkscape:pageopacity="0.0"
     inkscape:pageshadow="2"
     inkscape:zoom="1.1174888"
     inkscape:cx="284.20225"
     inkscape:cy="124.1987"
     inkscape:document-units="px"
     inkscape:current-layer="layer1"
     showgrid="false"
     fit-margin-top="0"
     fit-margin-left="0"
     fit-margin-right="0"
     fit-margin-bottom="0"
     inkscape:window-width="1855"
     inkscape:window-height="1056"
     inkscape:window-x="65"
     inkscape:window-y="24"
     inkscape:window-maximized="1" />
  <defs
     id="defs5486" />
  <metadata
     id="metadata5489">
    <rdf:RDF>
      <cc:Work
         rdf:about="">
        <dc:format>image/svg+xml</dc:format>
        <dc:type
           rdf:resource="http://purl.org/dc/dcmitype/StillImage" />
        <dc:title></dc:title>
      </cc:Work>
    </rdf:RDF>
  </metadata>
  <g
     inkscape:label="Layer 1"
     inkscape:groupmode="layer"
     id="layer1"
     transform="translate(-212.75,-461.96875)">
    <path
       inkscape:connector-curvature="0"
       d="m 212.69148,554.66785 2.865,1.65412 m 6.39768,0 -9.26268,-5.34782 m 0,-3.6937 15.66037,9.04152 m 6.39768,0 -22.05805,-12.73522 m 0,-3.6937 28.45573,16.42892 m 6.39768,0 -34.85341,-20.12262 m 0,-3.6937 41.25109,23.81632 m 6.39768,0 -47.64877,-27.51002 m 0,-3.6937 54.04645,31.20372 m 6.39768,0 -60.44413,-34.89742 m 0,-3.6937 66.84181,38.59112 m 6.39768,0 -73.23949,-42.28482 m 0,-3.69371 79.63717,45.97853 m 6.39768,0 -86.03485,-49.67223 m 0,-3.6937 92.43253,53.36593 m 6.39768,0 -98.83021,-57.05963 m 0,-3.6937 105.22789,60.75333 m 6.39768,0 -111.62557,-64.44703 m 1.32545,-2.92847 116.6978,67.3755 m 6.39768,0 -116.6978,-67.3755 m 6.39768,0 116.6978,67.3755 m 6.39768,0 -120.12156,-69.3522 m 1.59863,-2.77077 124.92061,72.12297 m 6.39768,0 -129.71966,-74.89367 m 1.59863,-2.77071 8.93815,5.16043 m 125.58057,72.50395 -116.69781,-67.3755 m -16.22227,-13.05965 4.14382,2.39247 m 135.17394,78.04268 -116.69781,-67.3755 m 6.39768,0 116.69781,67.3755 m 6.39767,0 -116.6978,-67.3755 m 6.39768,0 116.6978,67.3755 m 6.39768,0 -116.6978,-67.3755 m 6.39768,0 116.6978,67.3755 m 6.39768,0 -116.6978,-67.3755 m 6.39768,0 116.6978,67.3755 m 6.39768,0 -116.6978,-67.3755 m 6.39768,0 116.6978,67.3755 m 2.75297,-2.10426 -113.05308,-65.27124 m 6.39768,0 106.6554,61.57754 m 0,-3.6937 -100.25772,-57.88384 m 6.39768,0 93.86004,54.19014 m 0,-3.6937 -87.46236,-50.49644 m 6.39768,0 81.06468,46.80274 m 0,-3.6937 -74.667,-43.10904 m 6.39768,0 68.26932,39.41534 m 0,-3.6937 -61.87164,-35.72164 m 6.39768,0 55.47396,32.02787 m 0,-3.6937 -49.07628,-28.33417 m 6.39768,0 42.6786,24.64047 m 0,-3.6937 -36.28092,-20.94677 m 6.39768,0 29.88324,17.25307 m 0,-3.6937 -23.48556,-13.55937 m 6.39768,0 17.08788,9.86567 m 0,-3.6937 -10.6902,-6.17197 m 6.39768,0 4.29252,2.47827"
       style="color:#000000;display:inline;overflow:visible;visibility:visible;fill:none;stroke:#cccccc;stroke-width:0.63976806;stroke-linecap:butt;stroke-linejoin:miter;stroke-miterlimit:4;stroke-dasharray:none;stroke-dashoffset:0;stroke-opacity:1;marker:none;enable-background:accumulate"
       id="path5447" />
    <path
       style="color:#000000;display:inline;overflow:visible;visibility:visible;fill:#ffffff;fill-opacity:1;fill-rule:nonzero;stroke:#cccccc;stroke-width:3.83860826;stroke-miterlimit:4;stroke-dasharray:none;marker:none;enable-background:accumulate"
       d="m 443.51779,548.56261 0,-67.37551 -189.37134,0 -8.91676,-15.45443 -8.91677,15.45443 -15.95422,0 0,67.37551 223.15909,0 z"
       id="path5449"
       inkscape:connector-curvature="0" />
    <path
       id="path5451"
       style="color:#000000;display:inline;overflow:visible;visibility:visible;fill:none;stroke:#f34f2c;stroke-width:0.63976806;stroke-linecap:butt;stroke-linejoin:miter;stroke-miterlimit:4;stroke-dasharray:none;stroke-dashoffset:0;stroke-opacity:1;marker:none;enable-background:accumulate"
       d="m 453.93235,502.02921 -2.865,-1.65412 m -6.39768,0 9.26268,5.34782 m 0,3.6937 -15.66036,-9.04152 m -6.39768,0 22.05804,12.73522 m 0,3.6937 -28.45572,-16.42892 m -6.39769,0 34.85341,20.12262 m 0,3.69371 -41.25109,-23.81633 m -6.39768,0 47.64877,27.51003 m 0,3.6937 -54.04645,-31.20373 m -6.39768,0 60.44413,34.89743 m 0,3.6937 -66.84181,-38.59113 m -6.39768,0 73.23949,42.28483 m 0,3.6937 -79.63717,-45.97853 m -6.39768,0 86.03485,49.67223 m 0,3.6937 -92.43253,-53.36593 m -6.39768,0 98.83021,57.05963 m 0,3.6937 -105.22789,-60.75333 m -6.39768,0 111.62557,64.44703 m -1.32545,2.92848 -116.6978,-67.37551 m -6.39768,0 116.6978,67.37551 m -6.39768,0 -116.6978,-67.37551 m -6.39768,0 120.12157,69.3522 m -1.59864,2.77077 -124.92061,-72.12297 m -6.39768,0 129.71966,74.89368 m -1.59863,2.77071 -8.93815,-5.16044 m -125.58056,-72.50395 116.6978,67.37551 m 16.22227,13.05965 -4.14382,-2.39248 m -135.17393,-78.04268 116.6978,67.37551 m -6.39768,0 -116.6978,-67.37551 m -6.39768,0 116.6978,67.37551 m -6.39768,0 -116.6978,-67.37551 m -6.39768,0 116.6978,67.37551 m -6.39768,0 -116.6978,-67.37551 m -6.39768,0 116.6978,67.37551 m -6.39768,0 -116.6978,-67.37551 m -6.39768,0 116.6978,67.37551 m -6.39768,0 -116.6978,-67.37551 m -2.75296,2.10426 113.05308,65.27125 m -6.39768,0 -106.6554,-61.57755 m 0,3.6937 100.25772,57.88385 m -6.39768,0 -93.86004,-54.19015 m 0,3.6937 87.46235,50.49645 m -6.39768,0 -81.06467,-46.80274 m 0,3.6937 74.66699,43.10904 m -6.39768,0 -68.26931,-39.41534 m 0,3.6937 61.87163,35.72164 m -6.39768,0 -55.47395,-32.02788 m 0,3.6937 49.07627,28.33418 m -6.39768,0 -42.67859,-24.64048 m 0,3.69371 36.28091,20.94677 m -6.39767,0 -29.88324,-17.25307 m 0,3.6937 23.48556,13.55937 m -6.39768,0 -17.08788,-9.86567 m 0,3.6937 10.6902,6.17197 m -6.39768,0 -4.29252,-2.47827"
       inkscape:connector-curvature="0" />
    <path
       style="color:#000000;display:inline;overflow:visible;visibility:visible;fill:#f34f2c;fill-opacity:1;fill-rule:nonzero;stroke:none;stroke-width:3;marker:none;enable-background:accumulate"
       d="m 235.90831,496.54935 0,67.37558 189.35134,0 8.91677,15.4344 8.91677,-15.4344 15.97421,0 0,-67.37558 -223.15909,0 z"
       id="rect5453"
       inkscape:connector-curvature="0" />
    <g
       transform="matrix(0.63976805,0,0,0.63976805,-13.959966,370.93112)"
       style="font-style:normal;font-weight:normal;font-size:40px;line-height:125%;font-family:Sans;letter-spacing:0px;word-spacing:0px;fill:#ffffff;fill-opacity:1;stroke:none"
       id="flowRoot5457">
      <path
         inkscape:connector-curvature="0"
         d="m 420.39469,265.37782 0,-28.4 10.92,0 c 2.34665,3e-5 4.41331,0.37336 6.2,1.12 1.78664,0.74669 3.27997,1.76003 4.48,3.04 1.19997,1.28002 2.10664,2.78669 2.72,4.52 0.6133,1.70669 0.91997,3.53335 0.92,5.48 -3e-5,2.16001 -0.3467,4.12001 -1.04,5.88 -0.6667,1.73334 -1.62669,3.22667 -2.88,4.48 -1.25336,1.22667 -2.76002,2.18667 -4.52,2.88 -1.76002,0.66667 -3.72002,1 -5.88,1 l -10.92,0 m 17.32,-14.24 c -2e-5,-1.09332 -0.14669,-2.09332 -0.44,-3 -0.29335,-0.90665 -0.72002,-1.67998 -1.28,-2.32 -0.53335,-0.63998 -1.20002,-1.13331 -2,-1.48 -0.80002,-0.37331 -1.69335,-0.55998 -2.68,-0.56 l -3.12,0 0,14.8 3.12,0 c 1.01332,1e-5 1.91998,-0.18666 2.72,-0.56 0.79998,-0.37332 1.46665,-0.89332 2,-1.56 0.55998,-0.66666 0.97331,-1.45332 1.24,-2.36 0.29331,-0.90665 0.43998,-1.89332 0.44,-2.96"
         style="text-align:center;text-anchor:middle"
         id="path5551" />
      <path
         inkscape:connector-curvature="0"
         d="m 448.71219,265.37782 0,-21.04 7.6,0 0,21.04 -7.6,0 m 0,-22.8 0,-6.4 7.6,0 0,6.4 -7.6,0"
         style="text-align:center;text-anchor:middle"
         id="path5553" />
      <path
         inkscape:connector-curvature="0"
         d="m 466.71844,265.77782 c -1.04001,0 -2.01334,-0.17333 -2.92,-0.52 -0.90667,-0.34666 -1.69334,-0.81333 -2.36,-1.4 -0.64001,-0.61333 -1.14667,-1.33333 -1.52,-2.16 -0.37334,-0.82666 -0.56,-1.71999 -0.56,-2.68 0,-1.06666 0.22666,-2.03999 0.68,-2.92 0.45333,-0.87999 1.07999,-1.63999 1.88,-2.28 0.79999,-0.63999 1.74666,-1.13332 2.84,-1.48 1.11999,-0.34665 2.34665,-0.51998 3.68,-0.52 1.70665,2e-5 3.11998,0.26668 4.24,0.8 l 0,-0.64 c -2e-5,-0.98665 -0.29335,-1.71998 -0.88,-2.2 -0.56002,-0.47998 -1.48002,-0.71998 -2.76,-0.72 -1.20001,2e-5 -2.30668,0.20002 -3.32,0.6 -1.01334,0.37335 -2.08001,0.93335 -3.2,1.68 l -2.2,-4.72 c 2.77333,-1.78664 5.93332,-2.67998 9.48,-2.68 3.35998,2e-5 5.94665,0.74669 7.76,2.24 1.81331,1.49335 2.71998,3.73335 2.72,6.72 l 0,4.08 c -2e-5,0.72001 0.13331,1.22668 0.4,1.52 0.26664,0.26667 0.74664,0.42667 1.44,0.48 l 0,6.4 c -0.69336,0.13333 -1.34669,0.22667 -1.96,0.28 -0.61336,0.08 -1.16002,0.12 -1.64,0.12 -1.36002,0 -2.40002,-0.24 -3.12,-0.72 -0.69335,-0.50666 -1.14669,-1.24 -1.36,-2.2 l -0.16,-0.76 c -0.93335,1.2 -2.01335,2.12 -3.24,2.76 -1.22668,0.61333 -2.53335,0.92 -3.92,0.92 m 2.28,-5.44 c 0.45332,10e-6 0.91999,-0.0667 1.4,-0.2 0.47998,-0.15999 0.90665,-0.35999 1.28,-0.6 0.29332,-0.21333 0.53332,-0.43999 0.72,-0.68 0.18665,-0.26666 0.27998,-0.53332 0.28,-0.8 l 0,-1.56 c -0.45335,-0.15999 -0.94668,-0.29332 -1.48,-0.4 -0.53335,-0.10666 -1.01335,-0.15999 -1.44,-0.16 -0.93335,1e-5 -1.70668,0.22668 -2.32,0.68 -0.61334,0.45334 -0.92001,1.02668 -0.92,1.72 -10e-6,0.58667 0.22666,1.06667 0.68,1.44 0.47999,0.37334 1.07999,0.56001 1.8,0.56"
         style="text-align:center;text-anchor:middle"
         id="path5555" />
      <path
         inkscape:connector-curvature="0"
         d="m 484.93906,236.17782 7.6,0 0,20.32 c -1e-5,1.60001 0.65332,2.40001 1.96,2.4 0.31999,10e-6 0.66665,-0.0533 1.04,-0.16 0.37332,-0.10666 0.71999,-0.25332 1.04,-0.44 l 0.96,6.12 c -0.90668,0.42667 -1.93335,0.76 -3.08,1 -1.12001,0.24 -2.18668,0.36 -3.2,0.36 -2.02667,0 -3.58667,-0.52 -4.68,-1.56 -1.09334,-1.04 -1.64,-2.54666 -1.64,-4.52 l 0,-23.52"
         style="text-align:center;text-anchor:middle"
         id="path5557" />
      <path
         inkscape:connector-curvature="0"
         d="m 510.11594,265.77782 c -1.84001,0 -3.48001,-0.28 -4.92,-0.84 -1.44001,-0.58666 -2.65334,-1.37333 -3.64,-2.36 -0.96001,-0.98666 -1.69334,-2.11999 -2.2,-3.4 -0.50667,-1.27999 -0.76,-2.62666 -0.76,-4.04 0,-1.51999 0.23999,-2.95999 0.72,-4.32 0.50666,-1.35998 1.23999,-2.54665 2.2,-3.56 0.98666,-1.01331 2.18666,-1.81331 3.6,-2.4 1.43999,-0.61331 3.10665,-0.91998 5,-0.92 1.86665,2e-5 3.51998,0.30669 4.96,0.92 1.43998,0.58669 2.63998,1.38669 3.6,2.4 0.98664,0.98669 1.71997,2.14668 2.2,3.48 0.50664,1.30668 0.75997,2.68001 0.76,4.12 -3e-5,0.40001 -0.0267,0.81334 -0.08,1.24 -0.0267,0.40001 -0.0667,0.76001 -0.12,1.08 l -14.76,0 c 0.08,1.12001 0.49332,1.93334 1.24,2.44 0.74665,0.48001 1.55998,0.72001 2.44,0.72 0.82665,10e-6 1.59998,-0.18666 2.32,-0.56 0.74665,-0.37333 1.23998,-0.89333 1.48,-1.56 l 6.44,1.84 c -0.85336,1.68001 -2.17336,3.05334 -3.96,4.12 -1.76002,1.06667 -3.93335,1.6 -6.52,1.6 m 3.36,-13.16 c -0.13335,-1.01332 -0.50669,-1.81332 -1.12,-2.4 -0.61335,-0.58665 -1.40002,-0.87998 -2.36,-0.88 -0.96002,2e-5 -1.74668,0.29335 -2.36,0.88 -0.61335,0.58668 -0.98668,1.38668 -1.12,2.4 l 6.96,0"
         style="text-align:center;text-anchor:middle"
         id="path5559" />
      <path
         inkscape:connector-curvature="0"
         d="m 538.41094,265.37782 -4.76,-7.68 -1.52,1.68 0,6 -7.6,0 0,-29.2 7.6,0 0,15.96 5.6,-7.8 8,0 -7.24,9.2 7.96,11.84 -8.04,0"
         style="text-align:center;text-anchor:middle"
         id="path5561" />
      <path
         inkscape:connector-curvature="0"
         d="m 562.97218,264.21782 c -1.06668,0.45334 -2.21335,0.84 -3.44,1.16 -1.20001,0.29333 -2.38668,0.44 -3.56,0.44 -0.85334,0 -1.66667,-0.10667 -2.44,-0.32 -0.77334,-0.21333 -1.45334,-0.56 -2.04,-1.04 -0.56,-0.48 -1.01334,-1.10666 -1.36,-1.88 -0.32,-0.77333 -0.48,-1.73333 -0.48,-2.88 l 0,-9.64 -2.6,0 0,-5.72 2.6,0 0,-6.6 7.6,0 0,6.6 4.12,0 0,5.72 -4.12,0 0,6.96 c -10e-6,0.69334 0.14666,1.18668 0.44,1.48 0.29332,0.26667 0.69332,0.40001 1.2,0.4 0.37332,10e-6 0.79999,-0.0533 1.28,-0.16 0.47999,-0.13333 0.95999,-0.30666 1.44,-0.52 l 1.36,6"
         style="text-align:center;text-anchor:middle"
         id="path5563" />
      <path
         inkscape:connector-curvature="0"
         d="m 575.69094,265.77782 c -1.89334,0 -3.56001,-0.29333 -5,-0.88 -1.41334,-0.61333 -2.61334,-1.41333 -3.6,-2.4 -0.96,-1.01333 -1.69333,-2.17333 -2.2,-3.48 -0.48,-1.33332 -0.72,-2.71999 -0.72,-4.16 0,-1.43999 0.24,-2.81332 0.72,-4.12 0.50667,-1.33332 1.24,-2.49331 2.2,-3.48 0.98666,-1.01331 2.18666,-1.81331 3.6,-2.4 1.43999,-0.61331 3.10666,-0.91998 5,-0.92 1.86665,2e-5 3.51998,0.30669 4.96,0.92 1.43998,0.58669 2.63998,1.38669 3.6,2.4 0.98665,0.98669 1.71998,2.14668 2.2,3.48 0.50664,1.30668 0.75998,2.68001 0.76,4.12 -2e-5,1.44001 -0.25336,2.82668 -0.76,4.16 -0.48002,1.30667 -1.21335,2.46667 -2.2,3.48 -0.96002,0.98667 -2.16002,1.78667 -3.6,2.4 -1.44002,0.58667 -3.09335,0.88 -4.96,0.88 m -3.72,-10.92 c -1e-5,1.41334 0.34666,2.52001 1.04,3.32 0.69332,0.80001 1.58666,1.20001 2.68,1.2 1.09332,1e-5 1.98665,-0.39999 2.68,-1.2 0.69332,-0.79999 1.03998,-1.90666 1.04,-3.32 -2e-5,-1.41332 -0.34668,-2.51999 -1.04,-3.32 -0.69335,-0.79998 -1.58668,-1.19998 -2.68,-1.2 -1.09334,2e-5 -1.98668,0.40002 -2.68,1.2 -0.69334,0.80001 -1.04001,1.90668 -1.04,3.32"
         style="text-align:center;text-anchor:middle"
         id="path5565" />
      <path
         inkscape:connector-curvature="0"
         d="m 604.54218,250.81782 c -1.46668,2e-5 -2.80001,0.16002 -4,0.48 -1.20001,0.32002 -2.09334,0.85335 -2.68,1.6 l 0,12.48 -7.6,0 0,-21.04 6.96,0 0,4 c 0.74666,-1.41331 1.66666,-2.49331 2.76,-3.24 1.11999,-0.77331 2.31999,-1.15998 3.6,-1.16 0.50666,2e-5 0.82666,0.0134 0.96,0.04 l 0,6.84"
         style="text-align:center;text-anchor:middle"
         id="path5567" />
      <path
         inkscape:connector-curvature="0"
         d="m 613.26844,265.77782 c -1.04,0 -2.01334,-0.17333 -2.92,-0.52 -0.90667,-0.34666 -1.69333,-0.81333 -2.36,-1.4 -0.64,-0.61333 -1.14666,-1.33333 -1.52,-2.16 -0.37333,-0.82666 -0.56,-1.71999 -0.56,-2.68 0,-1.06666 0.22667,-2.03999 0.68,-2.92 0.45334,-0.87999 1.08,-1.63999 1.88,-2.28 0.8,-0.63999 1.74667,-1.13332 2.84,-1.48 1.12,-0.34665 2.34666,-0.51998 3.68,-0.52 1.70666,2e-5 3.11999,0.26668 4.24,0.8 l 0,-0.64 c -10e-6,-0.98665 -0.29334,-1.71998 -0.88,-2.2 -0.56001,-0.47998 -1.48001,-0.71998 -2.76,-0.72 -1.20001,2e-5 -2.30667,0.20002 -3.32,0.6 -1.01334,0.37335 -2.08,0.93335 -3.2,1.68 l -2.2,-4.72 c 2.77333,-1.78664 5.93333,-2.67998 9.48,-2.68 3.35999,2e-5 5.94665,0.74669 7.76,2.24 1.81332,1.49335 2.71998,3.73335 2.72,6.72 l 0,4.08 c -2e-5,0.72001 0.13332,1.22668 0.4,1.52 0.26665,0.26667 0.74665,0.42667 1.44,0.48 l 0,6.4 c -0.69335,0.13333 -1.34669,0.22667 -1.96,0.28 -0.61335,0.08 -1.16002,0.12 -1.64,0.12 -1.36001,0 -2.40001,-0.24 -3.12,-0.72 -0.69335,-0.50666 -1.14668,-1.24 -1.36,-2.2 l -0.16,-0.76 c -0.93334,1.2 -2.01334,2.12 -3.24,2.76 -1.22667,0.61333 -2.53334,0.92 -3.92,0.92 m 2.28,-5.44 c 0.45333,10e-6 0.91999,-0.0667 1.4,-0.2 0.47999,-0.15999 0.90666,-0.35999 1.28,-0.6 0.29332,-0.21333 0.53332,-0.43999 0.72,-0.68 0.18666,-0.26666 0.27999,-0.53332 0.28,-0.8 l 0,-1.56 c -0.45334,-0.15999 -0.94668,-0.29332 -1.48,-0.4 -0.53334,-0.10666 -1.01334,-0.15999 -1.44,-0.16 -0.93334,1e-5 -1.70667,0.22668 -2.32,0.68 -0.61334,0.45334 -0.92,1.02668 -0.92,1.72 0,0.58667 0.22666,1.06667 0.68,1.44 0.47999,0.37334 1.07999,0.56001 1.8,0.56"
         style="text-align:center;text-anchor:middle"
         id="path5569" />
      <path
         inkscape:connector-curvature="0"
         d="m 645.48906,265.37782 -4.76,-7.68 -1.52,1.68 0,6 -7.6,0 0,-29.2 7.6,0 0,15.96 5.6,-7.8 8,0 -7.24,9.2 7.96,11.84 -8.04,0"
         style="text-align:center;text-anchor:middle"
         id="path5571" />
      <path
         inkscape:connector-curvature="0"
         d="m 655.17031,236.17782 7.6,0 0,20.32 c -10e-6,1.60001 0.65332,2.40001 1.96,2.4 0.31998,10e-6 0.66665,-0.0533 1.04,-0.16 0.37332,-0.10666 0.71998,-0.25332 1.04,-0.44 l 0.96,6.12 c -0.90668,0.42667 -1.93335,0.76 -3.08,1 -1.12001,0.24 -2.18668,0.36 -3.2,0.36 -2.02668,0 -3.58667,-0.52 -4.68,-1.56 -1.09334,-1.04 -1.64001,-2.54666 -1.64,-4.52 l 0,-23.52"
         style="text-align:center;text-anchor:middle"
         id="path5573" />
      <path
         inkscape:connector-curvature="0"
         d="m 680.34719,265.77782 c -1.84001,0 -3.48001,-0.28 -4.92,-0.84 -1.44001,-0.58666 -2.65334,-1.37333 -3.64,-2.36 -0.96,-0.98666 -1.69333,-2.11999 -2.2,-3.4 -0.50667,-1.27999 -0.76,-2.62666 -0.76,-4.04 0,-1.51999 0.24,-2.95999 0.72,-4.32 0.50667,-1.35998 1.24,-2.54665 2.2,-3.56 0.98666,-1.01331 2.18666,-1.81331 3.6,-2.4 1.43999,-0.61331 3.10666,-0.91998 5,-0.92 1.86665,2e-5 3.51998,0.30669 4.96,0.92 1.43998,0.58669 2.63998,1.38669 3.6,2.4 0.98665,0.98669 1.71998,2.14668 2.2,3.48 0.50664,1.30668 0.75998,2.68001 0.76,4.12 -2e-5,0.40001 -0.0267,0.81334 -0.08,1.24 -0.0267,0.40001 -0.0667,0.76001 -0.12,1.08 l -14.76,0 c 0.08,1.12001 0.49332,1.93334 1.24,2.44 0.74666,0.48001 1.55999,0.72001 2.44,0.72 0.82665,10e-6 1.59999,-0.18666 2.32,-0.56 0.74665,-0.37333 1.23998,-0.89333 1.48,-1.56 l 6.44,1.84 c -0.85335,1.68001 -2.17335,3.05334 -3.96,4.12 -1.76002,1.06667 -3.93335,1.6 -6.52,1.6 m 3.36,-13.16 c -0.13335,-1.01332 -0.50668,-1.81332 -1.12,-2.4 -0.61335,-0.58665 -1.40001,-0.87998 -2.36,-0.88 -0.96001,2e-5 -1.74668,0.29335 -2.36,0.88 -0.61334,0.58668 -0.98667,1.38668 -1.12,2.4 l 6.96,0"
         style="text-align:center;text-anchor:middle"
         id="path5575" />
      <path
         inkscape:connector-curvature="0"
         d="m 709.5222,264.21782 c -1.06668,0.45334 -2.21335,0.84 -3.44,1.16 -1.20001,0.29333 -2.38668,0.44 -3.56,0.44 -0.85334,0 -1.66668,-0.10667 -2.44,-0.32 -0.77334,-0.21333 -1.45334,-0.56 -2.04,-1.04 -0.56,-0.48 -1.01334,-1.10666 -1.36,-1.88 -0.32,-0.77333 -0.48,-1.73333 -0.48,-2.88 l 0,-9.64 -2.6,0 0,-5.72 2.6,0 0,-6.6 7.6,0 0,6.6 4.12,0 0,5.72 -4.12,0 0,6.96 c -10e-6,0.69334 0.14666,1.18668 0.44,1.48 0.29332,0.26667 0.69332,0.40001 1.2,0.4 0.37332,10e-6 0.79999,-0.0533 1.28,-0.16 0.47999,-0.13333 0.95998,-0.30666 1.44,-0.52 l 1.36,6"
         style="font-variant:normal;font-weight:900;font-stretch:normal;font-family:Raleway;-inkscape-font-specification:'Raleway Heavy';text-align:start;letter-spacing:0.40000001px;writing-mode:lr-tb;text-anchor:start;fill:#ffffff"
         id="path5577" />
    </g>
  </g>
</svg>
